<svg xmlns="http://www.w3.org/2000/svg" version="1.1" xmlns:xlink="http://www.w3.org/1999/xlink" xmlns:svgjs="http://svgjs.dev/svgjs" width="2000" height="1999" viewBox="0 0 2000 1999"><g transform="matrix(1,0,0,1,-0.4314868804665366,-0.4312711370263287)"><svg viewBox="0 0 343 343" data-background-color="#ffffff" preserveAspectRatio="xMidYMid meet" height="1999" width="2000" xmlns="http://www.w3.org/2000/svg" xmlns:xlink="http://www.w3.org/1999/xlink"><g id="tight-bounds" transform="matrix(1,0,0,1,0.07400000000001228,0.07400000000001228)"><svg viewBox="0 0 342.8515585177538 342.8515585177538" height="342.8515585177538" width="342.8515585177538"><g><svg></svg></g><g><svg viewBox="0 0 342.8515585177538 342.8515585177538" height="342.8515585177538" width="342.8515585177538"><g><path d="M0 171.426c0-94.676 76.75-171.426 171.426-171.426 94.676 0 171.426 76.75 171.426 171.426 0 94.676-76.75 171.426-171.426 171.426-94.676 0-171.426-76.75-171.426-171.426zM171.426 339.425c92.783 0 167.999-75.216 167.999-167.999 0-92.783-75.216-167.999-167.999-168-92.783 0-167.999 75.216-168 168 0 92.783 75.216 167.999 168 167.999z" data-fill-palette-color="tertiary" fill="#ffffff" stroke="transparent"></path><ellipse rx="164.56874808852183" ry="164.56874808852183" cx="171.4257792588769" cy="171.4257792588769" fill="#ffffff" stroke="transparent" stroke-width="0" fill-opacity="1" data-fill-palette-color="tertiary"></ellipse></g><g transform="matrix(1,0,0,1,64.84655864529836,107.11092192990202)"><svg viewBox="0 0 213.15844122715708 128.62971465794976" height="128.62971465794976" width="213.15844122715708"><g><svg viewBox="0 0 213.15844122715708 128.62971465794976" height="128.62971465794976" width="213.15844122715708"><g><svg viewBox="0 0 213.15844122715714 128.6297146579498" height="128.62971465794976" width="213.15844122715708"><g transform="matrix(1,0,0,1,0,67.37803303828039)"><svg viewBox="0 0 213.15844122715714 61.25168161966939" height="61.25168161966939" width="213.15844122715714"><g id="textblocktransform"><svg viewBox="0 0 213.15844122715714 61.25168161966939" height="61.25168161966939" width="213.15844122715714" id="textblock"><g><svg viewBox="0 0 213.15844122715714 37.99477490043906" height="37.99477490043906" width="213.15844122715714"><g transform="matrix(1,0,0,1,0,0)"><svg width="213.15844122715714" viewBox="1.46 -33.33 190.88 34.019999999999996" height="37.99477490043906" data-palette-color="#000000"><path d="M9.1-25.63L1.46-25.63 1.46-31.25 23.19-31.25 23.19-25.63 15.56-25.63 15.56 0 9.1 0 9.1-25.63ZM36.32 0.56L36.32 0.56Q33.44 0.56 31.07-0.94 28.71-2.43 27.31-4.91 25.9-7.4 25.9-10.42L25.9-10.42Q25.9-13.44 27.31-15.94 28.71-18.44 31.07-19.91 33.44-21.39 36.32-21.39L36.32-21.39Q38.33-21.39 40-20.68 41.66-19.97 42.84-18.72L42.84-18.72 42.84-20.83 48.05-20.83 48.05 0 42.84 0 42.84-2.12Q41.66-0.87 40-0.16 38.33 0.56 36.32 0.56ZM37.05-4.76L37.05-4.76Q38.57-4.76 39.82-5.52 41.07-6.28 41.82-7.57 42.57-8.85 42.57-10.42L42.57-10.42Q42.57-11.98 41.82-13.26 41.07-14.55 39.82-15.31 38.57-16.08 37.05-16.08L37.05-16.08Q35.52-16.08 34.27-15.31 33.02-14.55 32.27-13.26 31.53-11.98 31.53-10.42L31.53-10.42Q31.53-8.85 32.27-7.57 33.02-6.28 34.27-5.52 35.52-4.76 37.05-4.76ZM59.47 0.69L59.47 0.69Q57.36 0.69 55.19 0 53.02-0.69 51.8-1.88L51.8-1.88 53.29-7.57Q54.3-6.18 56.09-5.14 57.88-4.1 59.79-4.1L59.79-4.1Q61.07-4.1 61.64-4.58 62.22-5.07 62.22-5.76L62.22-5.76Q62.22-6.56 61.63-6.93 61.04-7.29 60.41-7.53L60.41-7.53 57.5-8.65Q56.52-9.03 55.27-9.69 54.02-10.35 53.1-11.56 52.18-12.78 52.18-14.76L52.18-14.76Q52.18-16.56 53.09-18.09 53.99-19.62 55.71-20.57 57.43-21.53 59.86-21.53L59.86-21.53Q62.11-21.53 64.07-20.76 66.04-20 66.94-19.06L66.94-19.06 65.55-13.58Q64.37-15.1 62.76-15.92 61.14-16.74 59.68-16.74L59.68-16.74Q58.57-16.74 58.05-16.28 57.53-15.83 57.53-15.24L57.53-15.24Q57.53-14.79 57.89-14.36 58.26-13.92 59.13-13.58L59.13-13.58 61.84-12.57Q63.02-12.15 64.35-11.46 65.69-10.76 66.63-9.53 67.56-8.3 67.56-6.15L67.56-6.15Q67.56-3.13 65.32-1.22 63.09 0.69 59.47 0.69ZM92.01 0L84.89 0 76.59-11.46 83.43-20.83 89.92-20.83 83.19-11.98 92.01 0ZM77.08 0L71.03 0 71.03-33.33 77.08-33.33 77.08 0ZM101.17 0L95.34 0 95.34-32.29 110.2-13.82 124.78-32.29 124.78 0 118.74 0 118.74-8.96Q118.74-10.49 118.79-12.4 118.84-14.31 119.12-16.77L119.12-16.77Q118.05-14.97 117.06-13.65 116.07-12.33 115.23-11.22L115.23-11.22 110.09-4.34 104.78-11.22Q103.98-12.26 102.89-13.73 101.8-15.21 100.79-16.88L100.79-16.88Q101.07-14.34 101.12-12.43 101.17-10.52 101.17-8.96L101.17-8.96 101.17 0ZM139.78 0.56L139.78 0.56Q136.9 0.56 134.54-0.94 132.18-2.43 130.77-4.91 129.36-7.4 129.36-10.42L129.36-10.42Q129.36-13.44 130.77-15.94 132.18-18.44 134.54-19.91 136.9-21.39 139.78-21.39L139.78-21.39Q141.79-21.39 143.46-20.68 145.13-19.97 146.31-18.72L146.31-18.72 146.31-20.83 151.52-20.83 151.52 0 146.31 0 146.31-2.12Q145.13-0.87 143.46-0.16 141.79 0.56 139.78 0.56ZM140.51-4.76L140.51-4.76Q142.04-4.76 143.29-5.52 144.54-6.28 145.28-7.57 146.03-8.85 146.03-10.42L146.03-10.42Q146.03-11.98 145.28-13.26 144.54-14.55 143.29-15.31 142.04-16.08 140.51-16.08L140.51-16.08Q138.98-16.08 137.73-15.31 136.48-14.55 135.73-13.26 134.99-11.98 134.99-10.42L134.99-10.42Q134.99-8.85 135.73-7.57 136.48-6.28 137.73-5.52 138.98-4.76 140.51-4.76ZM164.57 0L158.53 0 158.53-16.04 154.64-16.04 154.64-20.83 158.63-20.83 158.63-27.78 164.46-27.78 164.46-20.83 168.6-20.83 168.6-16.04 164.57-16.04 164.57 0ZM182.52 0.69L182.52 0.69Q179.01 0.69 176.34-0.76 173.66-2.22 172.17-4.77 170.68-7.33 170.68-10.63L170.68-10.63Q170.68-13.78 172.14-16.23 173.59-18.68 176.08-20.1 178.56-21.53 181.58-21.53L181.58-21.53Q184.67-21.53 187.1-20.12 189.53-18.72 190.94-16.28 192.34-13.85 192.34-10.76L192.34-10.76 192.34-8.65 179.64-8.65Q178.77-8.65 177.97-8.75 177.17-8.85 176.37-8.99L176.37-8.99Q176.79-6.91 178.44-5.61 180.09-4.31 182.66-4.31L182.66-4.31Q184.64-4.31 186.22-5.1 187.8-5.9 188.8-7.08L188.8-7.08 190.12-1.67Q188.56-0.49 186.6 0.1 184.64 0.69 182.52 0.69ZM176.23-12.64L176.23-12.64Q177.97-13.02 179.64-13.02L179.64-13.02 183.32-13.02Q184.29-13.02 185.16-12.95 186.02-12.88 186.79-12.71L186.79-12.71Q186.27-14.58 184.9-15.66 183.52-16.74 181.51-16.74L181.51-16.74Q179.6-16.74 178.19-15.64 176.79-14.55 176.23-12.64Z" opacity="1" transform="matrix(1,0,0,1,0,0)" fill="#000000" class="wordmark-text-0" data-fill-palette-color="quaternary" id="text-0"></path></svg></g></svg></g><g transform="matrix(1,0,0,1,0,46.96442937983511)"><svg viewBox="0 0 213.15844122715714 14.28725223983428" height="14.28725223983428" width="213.15844122715714"><g transform="matrix(1,0,0,1,0,0)"><svg width="213.15844122715714" viewBox="3.91 -38.38 678.52 45.480000000000004" height="14.28725223983428" data-palette-color="#000000"><path d="M11.79-25.56L11.79-25.56 11.79-20 20.46-20Q21.04-20 21.34-19.8L21.34-19.8Q21.97-19.36 22.66-18.75 23.34-18.14 24.1-17.29L24.1-17.29Q24.34-16.97 24.34-16.77L24.34-16.77Q24.34-16.55 24.1-16.28L24.1-16.28Q23.34-15.43 22.66-14.82 21.97-14.21 21.34-13.77L21.34-13.77Q21-13.57 20.46-13.57L20.46-13.57 11.79-13.57 11.79-1.29Q11.79-0.56 11.49-0.28 11.18 0 10.45 0L10.45 0 5.25 0Q4.52 0 4.21-0.28 3.91-0.56 3.91-1.29L3.91-1.29 3.91-28.47Q3.91-30.91 4.36-32.34 4.81-33.76 6.12-34.39 7.42-35.01 9.94-35.01L9.94-35.01 21.46-35.01Q22.05-35.01 22.34-34.81L22.34-34.81Q22.97-34.38 23.66-33.76 24.34-33.15 25.1-32.3L25.1-32.3Q25.34-31.98 25.34-31.79L25.34-31.79Q25.34-31.57 25.1-31.3L25.1-31.3Q24.34-30.44 23.66-29.83 22.97-29.22 22.34-28.78L22.34-28.78Q22-28.59 21.46-28.59L21.46-28.59 14.58-28.59Q12.96-28.59 12.38-27.91 11.79-27.22 11.79-25.56ZM41.72 0.61L41.72 0.61Q35.57 0.61 31.98-2.66 28.39-5.93 28.39-12.4L28.39-12.4Q28.39-19.04 32.11-22.33 35.84-25.61 42.06-25.61L42.06-25.61Q48.07-25.61 51.68-22.38 55.3-19.14 55.3-12.84L55.3-12.84Q55.3-6.27 51.68-2.83 48.07 0.61 41.72 0.61ZM41.97-5.3L41.97-5.3Q44.65-5.3 46.02-6.97 47.39-8.64 47.39-12.7L47.39-12.7Q47.39-16.55 46.01-18.13 44.63-19.7 41.92-19.7L41.92-19.7Q39.3-19.7 37.8-18.01 36.3-16.31 36.3-12.5L36.3-12.5Q36.3-8.52 37.73-6.91 39.16-5.3 41.97-5.3ZM72.99-25.61L72.99-25.61Q75.9-25.61 77.22-25.13 78.54-24.66 78.88-24.39L78.88-24.39Q79.41-24.05 79.71-23.51L79.71-23.51Q79.88-23.24 80.1-22.58 80.32-21.92 80.41-21.14L80.41-21.14Q80.54-20.53 80.44-20.28 80.34-20.02 79.83-19.65L79.83-19.65Q79.24-19.26 78.55-18.96 77.85-18.65 77.41-18.53L77.41-18.53Q77.05-18.43 76.85-18.48 76.66-18.53 76.31-18.77L76.31-18.77Q75.92-19.04 75.21-19.37 74.51-19.7 73.26-19.7L73.26-19.7Q71.67-19.7 70.25-18.92 68.82-18.14 67.93-16.58 67.04-15.01 67.04-12.67L67.04-12.67Q67.04-9.16 68.88-7.23 70.72-5.3 73.82-5.3L73.82-5.3Q75.41-5.3 76.46-5.63 77.51-5.96 78.12-6.3L78.12-6.3Q78.61-6.57 78.86-6.43 79.12-6.3 79.27-5.96L79.27-5.96 81.05-1.93Q81.32-1.29 80.76-1.03L80.76-1.03Q79.85-0.56 77.78 0.02 75.7 0.61 72.65 0.61L72.65 0.61Q66.52 0.61 62.86-2.65 59.2-5.91 59.2-12.4L59.2-12.4Q59.2-16.55 60.88-19.51 62.57-22.46 65.67-24.04 68.77-25.61 72.99-25.61ZM93.74 0.61L93.74 0.61Q85.05 0.61 85.05-9.91L85.05-9.91 85.03-22.31Q85.03-22.9 85.27-23.22L85.27-23.22Q86.3-24.56 88.27-26.12L88.27-26.12Q88.62-26.37 88.88-26.37L88.88-26.37Q89.2-26.37 89.49-26.12L89.49-26.12Q90.54-25.32 91.26-24.61 91.98-23.9 92.5-23.22L92.5-23.22Q92.74-22.9 92.74-22.31L92.74-22.31 92.74-10.6Q92.74-5.3 96.94-5.3L96.94-5.3Q99.02-5.3 100.26-6.75 101.51-8.2 101.51-10.69L101.51-10.69 101.51-22.31Q101.51-22.9 101.75-23.22L101.75-23.22Q102.78-24.56 104.75-26.12L104.75-26.12Q105.1-26.37 105.36-26.37L105.36-26.37Q105.68-26.37 105.97-26.12L105.97-26.12Q107.02-25.32 107.74-24.61 108.46-23.9 108.98-23.22L108.98-23.22Q109.22-22.9 109.22-22.31L109.22-22.31 109.22-1.12Q109.22-0.66 108.9-0.33 108.59 0 108.1 0L108.1 0 104.44 0Q104.05 0 103.74-0.11 103.43-0.22 103.17-0.54L103.17-0.54 101.65-2.49 101.48-2.49Q101.09-1.93 100.27-1.2 99.46-0.46 97.91 0.07 96.35 0.61 93.74 0.61ZM122.77 0.61L122.77 0.61Q120.16 0.61 118.43 0.17 116.71-0.27 115.68-0.89 114.64-1.51 114.05-2.03L114.05-2.03Q113.61-2.44 113.95-2.95L113.95-2.95 116.45-6.64Q116.98-7.42 117.67-6.74L117.67-6.74Q118.37-6.05 119.58-5.41 120.79-4.76 122.6-4.76L122.6-4.76Q124.21-4.76 125.25-5.31 126.28-5.86 126.28-6.91L126.28-6.91Q126.28-7.64 125.82-8.11 125.36-8.57 124.18-9.06 123.01-9.55 120.91-10.3L120.91-10.3Q117.81-11.43 116.23-13.01 114.64-14.6 114.64-17.65L114.64-17.65Q114.64-20.46 116.19-22.22 117.74-23.97 120.17-24.79 122.6-25.61 125.23-25.61L125.23-25.61Q128.58-25.61 129.93-24.99 131.29-24.37 131.68-24.02L131.68-24.02Q132.05-23.71 132.19-23.29L132.19-23.29Q132.51-22.34 132.68-20.78L132.68-20.78Q132.78-19.87 132.22-19.58L132.22-19.58Q131.92-19.41 131.29-19.21 130.65-19.02 130.02-18.87 129.38-18.73 129.07-18.73L129.07-18.73Q128.97-18.73 128.86-18.79 128.75-18.85 128.48-19.09L128.48-19.09Q128.16-19.41 127.39-19.82 126.63-20.24 125.28-20.24L125.28-20.24Q123.96-20.24 123.07-19.81 122.18-19.38 122.18-18.31L122.18-18.31Q122.18-17.14 123.32-16.55 124.45-15.97 127.07-15.04L127.07-15.04Q129.12-14.33 130.64-13.49 132.17-12.65 133-11.29 133.83-9.94 133.83-7.64L133.83-7.64Q133.83-4.66 132.2-2.84 130.58-1.03 128.05-0.21 125.53 0.61 122.77 0.61ZM141.32 7.1L136.51 5.18Q137.32 3.49 137.98 0.56 138.63-2.37 138.63-5.62L138.63-5.62 138.63-7.74Q138.63-8.42 139.44-8.42L139.44-8.42 145.08-8.42Q145.91-8.42 145.91-7.52L145.91-7.52Q145.91-2.42 144.45 1.25 142.98 4.91 141.32 7.1L141.32 7.1ZM179.79-11.69L179.79-11.69Q179.16-11.69 178.72-12.01L178.72-12.01Q178.25-12.33 177.62-12.92 176.98-13.5 176.2-14.36L176.2-14.36Q175.91-14.7 175.91-14.97L175.91-14.97Q175.91-15.23 176.2-15.58L176.2-15.58Q177.72-17.29 178.96-18.09L178.96-18.09Q179.25-18.29 179.79-18.29L179.79-18.29Q181.45-18.29 182.66-19.53 183.87-20.78 183.82-23.56L183.82-23.56Q183.8-26.56 182.34-27.76 180.89-28.96 178.38-28.96L178.38-28.96 177.2-28.96Q175.59-28.96 175.01-28.27 174.42-27.59 174.42-25.93L174.42-25.93 174.42-1.29Q174.42-0.56 174.12-0.28 173.81 0 173.08 0L173.08 0 167.88 0Q167.15 0 166.84-0.28 166.54-0.56 166.54-1.29L166.54-1.29 166.54-28.47Q166.54-30.91 166.99-32.34 167.44-33.76 168.74-34.39 170.05-35.01 172.57-35.01L172.57-35.01 178.38-35.01Q185.38-35.01 188.75-32.26 192.12-29.52 192.12-23.85L192.12-23.85Q192.12-19.6 190.35-16.92 188.58-14.23 185.76-12.96 182.94-11.69 179.79-11.69ZM204.59-22.17L204.59-20.36 204.69-20.36Q206.52-25.44 211.28-25.44L211.28-25.44Q211.89-25.44 212.28-25.38 212.68-25.32 212.82-25.27L212.82-25.27Q213.19-25.15 213.19-24.71L213.19-24.71 213.19-18.82Q213.19-18.07 212.31-18.41L212.31-18.41Q212.02-18.53 211.47-18.66 210.92-18.8 209.94-18.8L209.94-18.8Q207.43-18.8 206.01-16.96 204.59-15.11 204.59-11.94L204.59-11.94 204.59-1.29Q204.59-0.56 204.29-0.28 203.98 0 203.25 0L203.25 0 198.22 0Q197.49 0 197.18-0.28 196.88-0.56 196.88-1.29L196.88-1.29 196.88-21.75Q196.88-22.34 197.12-22.66L197.12-22.66Q197.64-23.34 198.36-24.05 199.08-24.76 200.13-25.56L200.13-25.56Q200.32-25.71 200.52-25.76 200.71-25.81 200.86-25.81L200.86-25.81Q201.2-25.81 201.54-25.56L201.54-25.56Q203.57-23.97 204.37-22.85L204.37-22.85Q204.59-22.56 204.59-22.17L204.59-22.17ZM215.7-33.2L215.7-33.2Q215.7-33.52 215.9-33.76 216.09-34.01 216.41-34.4L216.41-34.4Q217.09-35.18 218-36.05 218.9-36.91 219.83-37.72L219.83-37.72Q220.41-38.18 220.71-38.18L220.71-38.18Q221-38.18 221.61-37.72L221.61-37.72Q223.59-36.01 224.98-34.4L224.98-34.4Q225.29-34.03 225.5-33.78 225.71-33.52 225.71-33.2L225.71-33.2Q225.71-32.89 225.5-32.64 225.29-32.4 224.95-31.98L224.95-31.98Q224.29-31.23 223.42-30.36 222.54-29.49 221.61-28.71L221.61-28.71Q221.27-28.42 221.07-28.33 220.88-28.25 220.71-28.25L220.71-28.25Q220.53-28.25 220.35-28.33 220.17-28.42 219.78-28.71L219.78-28.71Q218.8-29.49 217.95-30.36 217.09-31.23 216.41-32.03L216.41-32.03Q216.09-32.42 215.9-32.65 215.7-32.89 215.7-33.2ZM224.54-23.71L224.54-1.29Q224.54-0.56 224.23-0.28 223.93 0 223.2 0L223.2 0 218.17 0Q217.43 0 217.13-0.28 216.82-0.56 216.82-1.29L216.82-1.29 216.82-23.71Q216.82-24.44 217.13-24.72 217.43-25 218.17-25L218.17-25 223.2-25Q223.93-25 224.23-24.72 224.54-24.44 224.54-23.71L224.54-23.71ZM243.16 0.61L243.16 0.61Q237.01 0.61 233.42-2.66 229.83-5.93 229.83-12.4L229.83-12.4Q229.83-19.04 233.56-22.33 237.28-25.61 243.51-25.61L243.51-25.61Q249.51-25.61 253.12-22.38 256.74-19.14 256.74-12.84L256.74-12.84Q256.74-6.27 253.12-2.83 249.51 0.61 243.16 0.61ZM243.41-5.3L243.41-5.3Q246.09-5.3 247.46-6.97 248.83-8.64 248.83-12.7L248.83-12.7Q248.83-16.55 247.45-18.13 246.07-19.7 243.36-19.7L243.36-19.7Q240.75-19.7 239.25-18.01 237.74-16.31 237.74-12.5L237.74-12.5Q237.74-8.52 239.17-6.91 240.6-5.3 243.41-5.3ZM269.7-22.17L269.7-20.36 269.8-20.36Q271.63-25.44 276.39-25.44L276.39-25.44Q277-25.44 277.39-25.38 277.78-25.32 277.93-25.27L277.93-25.27Q278.29-25.15 278.29-24.71L278.29-24.71 278.29-18.82Q278.29-18.07 277.41-18.41L277.41-18.41Q277.12-18.53 276.57-18.66 276.02-18.8 275.05-18.8L275.05-18.8Q272.53-18.8 271.12-16.96 269.7-15.11 269.7-11.94L269.7-11.94 269.7-1.29Q269.7-0.56 269.39-0.28 269.09 0 268.36 0L268.36 0 263.33 0Q262.59 0 262.29-0.28 261.98-0.56 261.98-1.29L261.98-1.29 261.98-21.75Q261.98-22.34 262.23-22.66L262.23-22.66Q262.74-23.34 263.46-24.05 264.18-24.76 265.23-25.56L265.23-25.56Q265.43-25.71 265.62-25.76 265.82-25.81 265.96-25.81L265.96-25.81Q266.31-25.81 266.65-25.56L266.65-25.56Q268.67-23.97 269.48-22.85L269.48-22.85Q269.7-22.56 269.7-22.17L269.7-22.17ZM280.8-33.2L280.8-33.2Q280.8-33.52 281-33.76 281.2-34.01 281.51-34.4L281.51-34.4Q282.2-35.18 283.1-36.05 284-36.91 284.93-37.72L284.93-37.72Q285.52-38.18 285.81-38.18L285.81-38.18Q286.1-38.18 286.71-37.72L286.71-37.72Q288.69-36.01 290.08-34.4L290.08-34.4Q290.4-34.03 290.61-33.78 290.81-33.52 290.81-33.2L290.81-33.2Q290.81-32.89 290.61-32.64 290.4-32.4 290.06-31.98L290.06-31.98Q289.4-31.23 288.52-30.36 287.64-29.49 286.71-28.71L286.71-28.71Q286.37-28.42 286.18-28.33 285.98-28.25 285.81-28.25L285.81-28.25Q285.64-28.25 285.46-28.33 285.27-28.42 284.88-28.71L284.88-28.71Q283.91-29.49 283.05-30.36 282.2-31.23 281.51-32.03L281.51-32.03Q281.2-32.42 281-32.65 280.8-32.89 280.8-33.2ZM289.64-23.71L289.64-1.29Q289.64-0.56 289.34-0.28 289.03 0 288.3 0L288.3 0 283.27 0Q282.54 0 282.23-0.28 281.93-0.56 281.93-1.29L281.93-1.29 281.93-23.71Q281.93-24.44 282.23-24.72 282.54-25 283.27-25L283.27-25 288.3-25Q289.03-25 289.34-24.72 289.64-24.44 289.64-23.71L289.64-23.71ZM306.17 0.61L306.17 0.61Q298.01 0.61 298.01-7.86L298.01-7.86 298.01-19.31 295.26-19.31Q294.52-19.31 294.24-19.62 293.96-19.92 293.96-20.65L293.96-20.65 293.96-23.66Q293.96-24.39 294.24-24.69 294.52-25 295.26-25L295.26-25 298.01-25 298.01-28.93Q298.01-29.52 298.26-29.83L298.26-29.83Q299.28-31.18 301.26-32.74L301.26-32.74Q301.6-32.98 301.87-32.98L301.87-32.98Q302.16-32.98 302.46-32.74L302.46-32.74Q303.51-31.93 304.23-31.23 304.95-30.52 305.46-29.83L305.46-29.83Q305.7-29.52 305.7-28.93L305.7-28.93 305.7-25 310.03-25Q310.76-25 311.04-24.69 311.32-24.39 311.32-23.66L311.32-23.66 311.32-20.65Q311.32-19.92 311.04-19.62 310.76-19.31 310.03-19.31L310.03-19.31 305.7-19.31 305.7-9.2Q305.7-5.3 308.54-5.3L308.54-5.3Q308.98-5.3 309.34-5.38 309.71-5.47 309.98-5.57L309.98-5.57Q310.49-5.76 310.7-5.71 310.91-5.66 311.08-5.18L311.08-5.18 312.49-1.39Q312.71-0.78 312.2-0.51L312.2-0.51Q311.83-0.34 310.43 0.13 309.03 0.61 306.17 0.61ZM315.44-33.2L315.44-33.2Q315.44-33.52 315.64-33.76 315.83-34.01 316.15-34.4L316.15-34.4Q316.84-35.18 317.74-36.05 318.64-36.91 319.57-37.72L319.57-37.72Q320.16-38.18 320.45-38.18L320.45-38.18Q320.74-38.18 321.35-37.72L321.35-37.72Q323.33-36.01 324.72-34.4L324.72-34.4Q325.04-34.03 325.25-33.78 325.45-33.52 325.45-33.2L325.45-33.2Q325.45-32.89 325.25-32.64 325.04-32.4 324.7-31.98L324.7-31.98Q324.04-31.23 323.16-30.36 322.28-29.49 321.35-28.71L321.35-28.71Q321.01-28.42 320.81-28.33 320.62-28.25 320.45-28.25L320.45-28.25Q320.28-28.25 320.09-28.33 319.91-28.42 319.52-28.71L319.52-28.71Q318.54-29.49 317.69-30.36 316.84-31.23 316.15-32.03L316.15-32.03Q315.83-32.42 315.64-32.65 315.44-32.89 315.44-33.2ZM324.28-23.71L324.28-1.29Q324.28-0.56 323.98-0.28 323.67 0 322.94 0L322.94 0 317.91 0Q317.18 0 316.87-0.28 316.57-0.56 316.57-1.29L316.57-1.29 316.57-23.71Q316.57-24.44 316.87-24.72 317.18-25 317.91-25L317.91-25 322.94-25Q323.67-25 323.98-24.72 324.28-24.44 324.28-23.71L324.28-23.71ZM348.74 0L331.65 0Q330.43 0 329.58-0.67 328.72-1.34 328.66-2.5 328.6-3.66 329.75-5.13L329.75-5.13 340.81-19.31 331.46-19.31Q331.02-19.31 330.77-19.48L330.77-19.48Q329.77-20.29 328.67-21.7L328.67-21.7Q328.48-22.02 328.48-22.17L328.48-22.17Q328.48-22.34 328.67-22.61L328.67-22.61Q329.77-24.02 330.77-24.83L330.77-24.83Q331.07-25 331.46-25L331.46-25 347.35-25Q349.79-25 350.45-23.43 351.11-21.85 349.6-19.9L349.6-19.9 338.71-5.69 348.74-5.69Q349.18-5.69 349.43-5.52L349.43-5.52Q350.43-4.71 351.53-3.3L351.53-3.3Q351.72-2.98 351.72-2.83L351.72-2.83Q351.72-2.66 351.53-2.39L351.53-2.39Q350.43-0.98 349.43-0.17L349.43-0.17Q349.13 0 348.74 0L348.74 0ZM368.12 0.61L368.12 0.61Q364 0.61 360.95-0.72 357.89-2.05 356.21-4.86 354.53-7.67 354.53-12.11L354.53-12.11Q354.53-18.77 357.94-22.19 361.36-25.61 367.03-25.61L367.03-25.61Q370.71-25.61 373.26-24.29 375.81-22.97 377.15-20.65 378.48-18.33 378.48-15.36L378.48-15.36Q378.48-12.45 376.99-11.3 375.5-10.16 372.64-10.16L372.64-10.16 362.17-10.16Q362.36-7.64 364.01-6.32 365.66-5 368.49-5L368.49-5Q370.74-5 372.09-5.68 373.45-6.35 373.98-6.74L373.98-6.74Q374.45-7.08 375.03-7.06L375.03-7.06Q375.5-7.06 376.36-6.87 377.23-6.69 378.09-6.2L378.09-6.2Q378.7-5.88 378.7-5.32L378.7-5.32Q378.7-5 378.57-4.42L378.57-4.42Q378.5-4.08 378.33-3.43 378.16-2.78 377.89-2.22L377.89-2.22Q377.74-1.95 377.43-1.71L377.43-1.71Q376.94-1.37 375.85-0.81 374.76-0.24 372.88 0.18 371 0.61 368.12 0.61ZM362.12-15.16L362.12-15.16 370.08-15.16Q371.32-15.16 371.32-16.31L371.32-16.31Q371.32-18.04 370.24-19.23 369.15-20.41 366.98-20.41L366.98-20.41Q364.61-20.41 363.5-18.9 362.39-17.38 362.12-15.16ZM404.11 0.61L404.11 0.61Q400.52 0.61 398.4-1.4 396.29-3.42 396.29-6.96L396.29-6.96Q396.29-8.79 396.96-10.36 397.64-11.94 399.31-13.15 400.98-14.36 404-15.09 407.01-15.82 411.7-15.94L411.7-15.94Q411.7-18.16 410.59-19.14 409.48-20.12 407.25-20.12L407.25-20.12Q405.25-20.12 403.98-19.43 402.71-18.75 402.4-18.51L402.4-18.51Q402.05-18.21 401.57-18.29L401.57-18.29Q400.91-18.38 400.16-18.63 399.42-18.87 398.56-19.19L398.56-19.19Q398.44-19.24 398.29-19.35 398.15-19.46 398.12-19.68L398.12-19.68Q398.12-19.8 398.15-19.98 398.17-20.17 398.27-20.65L398.27-20.65Q398.37-21.14 398.56-21.86 398.76-22.58 398.93-22.97L398.93-22.97Q399.15-23.39 399.66-23.75L399.66-23.75Q400.08-24.1 402.18-24.85 404.28-25.61 408.26-25.61L408.26-25.61Q419.22-25.61 419.22-14.94L419.22-14.94 419.22-1.12Q419.22-0.66 418.96-0.33 418.71 0 418.09 0L418.09 0 414.43 0Q414.04 0 413.74-0.11 413.43-0.22 413.16-0.54L413.16-0.54 411.65-2.49 411.48-2.49Q410.36-0.85 408.46-0.12 406.57 0.61 404.11 0.61ZM406.79-5.05L406.79-5.05Q409.04-5.05 410.18-6.2 411.33-7.35 411.65-8.57L411.65-8.57 411.65-11.28Q408.26-11.28 406.56-10.75 404.86-10.23 404.3-9.39 403.74-8.54 403.74-7.57L403.74-7.57Q403.74-6.15 404.62-5.6 405.5-5.05 406.79-5.05ZM449.98-15.55L449.98-15.55 449.98-1.29Q449.98-0.56 449.67-0.28 449.37 0 448.63 0L448.63 0 443.6 0Q442.87 0 442.57-0.28 442.26-0.56 442.26-1.29L442.26-1.29 442.26-14.28Q442.26-16.94 441.14-18.16 440.02-19.38 438.09-19.38L438.09-19.38Q436.16-19.38 435.12-18.55 434.08-17.72 433.52-16.46L433.52-16.46 433.52-1.29Q433.52-0.56 433.22-0.28 432.91 0 432.18 0L432.18 0 427.15 0Q426.42 0 426.11-0.28 425.81-0.56 425.81-1.29L425.81-1.29 425.81-21.75Q425.81-22.34 426.05-22.66L426.05-22.66Q426.56-23.34 427.28-24.05 428-24.76 429.05-25.56L429.05-25.56Q429.37-25.81 429.66-25.81L429.66-25.81Q429.93-25.81 430.27-25.56L430.27-25.56Q431.3-24.76 432.03-24.02 432.77-23.29 433.33-22.51L433.33-22.51 433.45-22.51Q433.86-23.05 434.69-23.77 435.52-24.49 437.03-25.05 438.53-25.61 440.87-25.61L440.87-25.61Q443.17-25.61 445.24-24.68 447.32-23.75 448.65-21.56 449.98-19.36 449.98-15.55ZM465.4 0.61L465.4 0.61Q462.16 0.61 459.87-0.99 457.59-2.59 456.41-5.41 455.22-8.23 455.22-11.91L455.22-11.91Q455.22-16.77 456.94-19.79 458.67-22.8 461.8-24.22 464.94-25.63 469.21-25.63L469.21-25.63Q470.68-25.63 471.64-25.49 472.61-25.34 473.02-25.22L473.02-25.22 473.02-34.33Q473.02-34.91 473.27-35.23L473.27-35.23Q474.29-36.57 476.27-38.13L476.27-38.13Q476.61-38.38 476.88-38.38L476.88-38.38Q477.2-38.38 477.49-38.13L477.49-38.13Q478.54-37.33 479.26-36.62 479.98-35.91 480.49-35.23L480.49-35.23Q480.74-34.91 480.74-34.33L480.74-34.33 480.74-1.12Q480.74-0.66 480.42-0.33 480.1 0 479.61 0L479.61 0 475.98 0Q475.58 0 475.28-0.11 474.97-0.22 474.71-0.54L474.71-0.54 473.19-2.49 473.02-2.49Q472.7-2 471.89-1.26 471.07-0.51 469.52 0.05 467.97 0.61 465.4 0.61ZM467.77-5.64L467.77-5.64Q469.97-5.64 471.23-6.47 472.48-7.3 473.02-8.57L473.02-8.57 473.02-18.8Q472.63-19.04 471.73-19.38 470.82-19.73 469.19-19.73L469.19-19.73Q466.16-19.73 464.65-17.75 463.13-15.77 463.13-12.43L463.13-12.43Q463.13-8.96 464.4-7.3 465.67-5.64 467.77-5.64ZM520.04 0L507.76 0Q505.24 0 503.94-0.63 502.63-1.27 502.18-2.71 501.73-4.15 501.73-6.54L501.73-6.54 501.73-28.47Q501.73-30.91 502.18-32.34 502.63-33.76 503.94-34.39 505.24-35.01 507.76-35.01L507.76-35.01 519.23-35.01Q519.82-35.01 520.11-34.81L520.11-34.81Q520.75-34.38 521.43-33.76 522.11-33.15 522.87-32.3L522.87-32.3Q523.11-31.98 523.11-31.79L523.11-31.79Q523.11-31.57 522.87-31.3L522.87-31.3Q522.11-30.44 521.43-29.83 520.75-29.22 520.11-28.78L520.11-28.78Q519.77-28.59 519.23-28.59L519.23-28.59 512.4-28.59Q510.78-28.59 510.2-27.91 509.61-27.22 509.61-25.56L509.61-25.56 509.61-20.83 518.38-20.83Q518.96-20.83 519.26-20.63L519.26-20.63Q519.89-20.19 520.57-19.58 521.26-18.97 522.02-18.12L522.02-18.12Q522.26-17.8 522.26-17.6L522.26-17.6Q522.26-17.38 522.02-17.11L522.02-17.11Q521.26-16.26 520.57-15.65 519.89-15.04 519.26-14.6L519.26-14.6Q518.91-14.4 518.38-14.4L518.38-14.4 509.61-14.4 509.61-9.47Q509.61-7.84 510.2-7.13 510.78-6.42 512.4-6.42L512.4-6.42 520.04-6.42Q520.62-6.42 520.92-6.23L520.92-6.23Q521.55-5.79 522.24-5.18 522.92-4.57 523.68-3.71L523.68-3.71Q523.92-3.39 523.92-3.2L523.92-3.2Q523.92-2.98 523.68-2.71L523.68-2.71Q522.92-1.86 522.24-1.25 521.55-0.63 520.92-0.2L520.92-0.2Q520.57 0 520.04 0L520.04 0ZM538.98-8.47L538.98-8.47Q536.39-6.98 535.39-5.22 534.39-3.47 534.39-0.9L534.39-0.9Q534.39-0.39 534.24-0.2 534.1 0 533.61 0L533.61 0 527.92 0Q526.85 0 526.85-1.39L526.85-1.39Q526.85-4.71 528.2-7.32 529.56-9.94 532.97-11.99L532.97-11.99Q530.39-13.43 528.91-15.89 527.43-18.36 527.43-21.12L527.43-21.12 527.43-21.51Q527.43-22.09 527.68-22.41L527.68-22.41Q528.7-23.75 530.68-25.32L530.68-25.32Q531.02-25.56 531.29-25.56L531.29-25.56Q531.61-25.56 531.9-25.32L531.9-25.32Q532.95-24.51 533.67-23.8 534.39-23.1 534.9-22.41L534.9-22.41Q535.15-22.09 535.15-21.51L535.15-21.51 535.15-21.12Q535.15-17.63 539.2-15.72L539.2-15.72Q541.06-16.75 541.82-18.09 542.59-19.43 542.59-21.12L542.59-21.12 542.59-21.51Q542.59-22.09 542.84-22.41L542.84-22.41Q543.81-23.75 545.77-25.32L545.77-25.32Q546.09-25.56 546.35-25.56L546.35-25.56Q546.67-25.56 546.94-25.32L546.94-25.32Q547.96-24.51 548.67-23.8 549.38-23.1 549.87-22.41L549.87-22.41Q550.11-22.09 550.11-21.51L550.11-21.51 550.11-21.12Q550.11-18.09 548.77-15.89 547.43-13.7 545.25-12.26L545.25-12.26Q548.28-10.55 549.67-7.75 551.07-4.96 551.07-1.39L551.07-1.39Q551.07-0.56 550.87-0.28 550.67 0 550.02 0L550.02 0 544.21 0Q543.35 0 543.35-1.17L543.35-1.17Q543.35-2.76 543.05-4 542.74-5.25 541.81-6.34 540.88-7.42 538.98-8.47ZM568.32 0.61L568.32 0.61Q564.2 0.61 561.15-0.72 558.09-2.05 556.41-4.86 554.73-7.67 554.73-12.11L554.73-12.11Q554.73-18.77 558.14-22.19 561.56-25.61 567.23-25.61L567.23-25.61Q570.91-25.61 573.46-24.29 576.01-22.97 577.34-20.65 578.68-18.33 578.68-15.36L578.68-15.36Q578.68-12.45 577.19-11.3 575.7-10.16 572.84-10.16L572.84-10.16 562.37-10.16Q562.56-7.64 564.21-6.32 565.86-5 568.69-5L568.69-5Q570.94-5 572.29-5.68 573.65-6.35 574.18-6.74L574.18-6.74Q574.65-7.08 575.23-7.06L575.23-7.06Q575.7-7.06 576.56-6.87 577.43-6.69 578.28-6.2L578.28-6.2Q578.9-5.88 578.9-5.32L578.9-5.32Q578.9-5 578.77-4.42L578.77-4.42Q578.7-4.08 578.53-3.43 578.36-2.78 578.09-2.22L578.09-2.22Q577.94-1.95 577.63-1.71L577.63-1.71Q577.14-1.37 576.05-0.81 574.96-0.24 573.08 0.18 571.2 0.61 568.32 0.61ZM562.32-15.16L562.32-15.16 570.28-15.16Q571.52-15.16 571.52-16.31L571.52-16.31Q571.52-18.04 570.44-19.23 569.35-20.41 567.18-20.41L567.18-20.41Q564.81-20.41 563.7-18.9 562.59-17.38 562.32-15.16ZM596.5-25.61L596.5-25.61Q599.4-25.61 600.72-25.13 602.04-24.66 602.38-24.39L602.38-24.39Q602.92-24.05 603.21-23.51L603.21-23.51Q603.38-23.24 603.6-22.58 603.82-21.92 603.92-21.14L603.92-21.14Q604.04-20.53 603.94-20.28 603.84-20.02 603.33-19.65L603.33-19.65Q602.75-19.26 602.05-18.96 601.35-18.65 600.91-18.53L600.91-18.53Q600.55-18.43 600.35-18.48 600.16-18.53 599.82-18.77L599.82-18.77Q599.42-19.04 598.72-19.37 598.01-19.7 596.76-19.7L596.76-19.7Q595.18-19.7 593.75-18.92 592.32-18.14 591.43-16.58 590.54-15.01 590.54-12.67L590.54-12.67Q590.54-9.16 592.38-7.23 594.22-5.3 597.33-5.3L597.33-5.3Q598.91-5.3 599.96-5.63 601.01-5.96 601.62-6.3L601.62-6.3Q602.11-6.57 602.37-6.43 602.62-6.3 602.77-5.96L602.77-5.96 604.55-1.93Q604.82-1.29 604.26-1.03L604.26-1.03Q603.36-0.56 601.28 0.02 599.21 0.61 596.15 0.61L596.15 0.61Q590.03 0.61 586.36-2.65 582.7-5.91 582.7-12.4L582.7-12.4Q582.7-16.55 584.39-19.51 586.07-22.46 589.17-24.04 592.27-25.61 596.5-25.61ZM617.24 0.61L617.24 0.61Q608.55 0.61 608.55-9.91L608.55-9.91 608.53-22.31Q608.53-22.9 608.77-23.22L608.77-23.22Q609.8-24.56 611.78-26.12L611.78-26.12Q612.12-26.37 612.39-26.37L612.39-26.37Q612.7-26.37 613-26.12L613-26.12Q614.05-25.32 614.77-24.61 615.49-23.9 616-23.22L616-23.22Q616.24-22.9 616.24-22.31L616.24-22.31 616.24-10.6Q616.24-5.3 620.44-5.3L620.44-5.3Q622.52-5.3 623.76-6.75 625.01-8.2 625.01-10.69L625.01-10.69 625.01-22.31Q625.01-22.9 625.25-23.22L625.25-23.22Q626.28-24.56 628.26-26.12L628.26-26.12Q628.6-26.37 628.87-26.37L628.87-26.37Q629.18-26.37 629.48-26.12L629.48-26.12Q630.53-25.32 631.25-24.61 631.97-23.9 632.48-23.22L632.48-23.22Q632.72-22.9 632.72-22.31L632.72-22.31 632.72-1.12Q632.72-0.66 632.41-0.33 632.09 0 631.6 0L631.6 0 627.94 0Q627.55 0 627.24-0.11 626.94-0.22 626.67-0.54L626.67-0.54 625.15-2.49 624.98-2.49Q624.59-1.93 623.78-1.2 622.96-0.46 621.41 0.07 619.86 0.61 617.24 0.61ZM649.2 0.61L649.2 0.61Q641.05 0.61 641.05-7.86L641.05-7.86 641.05-19.31 638.29-19.31Q637.55-19.31 637.27-19.62 636.99-19.92 636.99-20.65L636.99-20.65 636.99-23.66Q636.99-24.39 637.27-24.69 637.55-25 638.29-25L638.29-25 641.05-25 641.05-28.93Q641.05-29.52 641.29-29.83L641.29-29.83Q642.32-31.18 644.29-32.74L644.29-32.74Q644.63-32.98 644.9-32.98L644.9-32.98Q645.2-32.98 645.49-32.74L645.49-32.74Q646.54-31.93 647.26-31.23 647.98-30.52 648.49-29.83L648.49-29.83Q648.74-29.52 648.74-28.93L648.74-28.93 648.74-25 653.06-25Q653.79-25 654.07-24.69 654.35-24.39 654.35-23.66L654.35-23.66 654.35-20.65Q654.35-19.92 654.07-19.62 653.79-19.31 653.06-19.31L653.06-19.31 648.74-19.31 648.74-9.2Q648.74-5.3 651.57-5.3L651.57-5.3Q652.01-5.3 652.37-5.38 652.74-5.47 653.01-5.57L653.01-5.57Q653.52-5.76 653.73-5.71 653.94-5.66 654.11-5.18L654.11-5.18 655.52-1.39Q655.74-0.78 655.23-0.51L655.23-0.51Q654.86-0.34 653.46 0.13 652.06 0.61 649.2 0.61ZM671.85 0.61L671.85 0.61Q667.73 0.61 664.68-0.72 661.62-2.05 659.94-4.86 658.26-7.67 658.26-12.11L658.26-12.11Q658.26-18.77 661.67-22.19 665.09-25.61 670.76-25.61L670.76-25.61Q674.44-25.61 676.99-24.29 679.54-22.97 680.87-20.65 682.21-18.33 682.21-15.36L682.21-15.36Q682.21-12.45 680.72-11.3 679.23-10.16 676.37-10.16L676.37-10.16 665.9-10.16Q666.09-7.64 667.74-6.32 669.39-5 672.22-5L672.22-5Q674.47-5 675.82-5.68 677.18-6.35 677.71-6.74L677.71-6.74Q678.18-7.08 678.76-7.06L678.76-7.06Q679.23-7.06 680.09-6.87 680.96-6.69 681.81-6.2L681.81-6.2Q682.43-5.88 682.43-5.32L682.43-5.32Q682.43-5 682.3-4.42L682.3-4.42Q682.23-4.08 682.06-3.43 681.89-2.78 681.62-2.22L681.62-2.22Q681.47-1.95 681.16-1.71L681.16-1.71Q680.67-1.37 679.58-0.81 678.49-0.24 676.61 0.18 674.73 0.61 671.85 0.61ZM665.85-15.16L665.85-15.16 673.81-15.16Q675.05-15.16 675.05-16.31L675.05-16.31Q675.05-18.04 673.97-19.23 672.88-20.41 670.71-20.41L670.71-20.41Q668.34-20.41 667.23-18.9 666.12-17.38 665.85-15.16Z" opacity="1" transform="matrix(1,0,0,1,0,0)" fill="#000000" class="slogan-text-1" data-fill-palette-color="quaternary" id="text-1"></path></svg></g></svg></g></svg></g></svg></g><g transform="matrix(1,0,0,1,77.37411867470081,0)"><svg viewBox="0 0 58.410203877755514 58.40837855888434" height="58.40837855888434" width="58.410203877755514"><g><svg xmlns="http://www.w3.org/2000/svg" xmlns:xlink="http://www.w3.org/1999/xlink" version="1.1" x="0" y="0" viewBox="0 0.001 64 63.998000000000005" enable-background="new 0 0 64 64" xml:space="preserve" height="58.40837855888434" width="58.410203877755514" class="icon-icon-0" data-fill-palette-color="quaternary" id="icon-0"><g fill="#000000" data-fill-palette-color="quaternary"><polygon points="1.972,15.162 0,15.162 0,0.001 15.16,0.001 15.16,1.973 1.972,1.973  " fill="#000000" data-fill-palette-color="quaternary"></polygon><polygon points="64,15.162 62.028,15.162 62.028,1.973 48.84,1.973 48.84,0.001 64,0.001  " fill="#000000" data-fill-palette-color="quaternary"></polygon><polygon points="64,63.999 48.84,63.999 48.84,62.027 62.028,62.027 62.028,48.839 64,48.839  " fill="#000000" data-fill-palette-color="quaternary"></polygon><polygon points="15.16,63.999 0,63.999 0,48.839 1.972,48.839 1.972,62.027 15.16,62.027  " fill="#000000" data-fill-palette-color="quaternary"></polygon><g fill="#000000" data-fill-palette-color="quaternary"><rect x="17.721" y="31.015" width="28.559" height="1.972" fill="#000000" data-fill-palette-color="quaternary"></rect><rect x="31.015" y="17.721" width="1.971" height="28.558" fill="#000000" data-fill-palette-color="quaternary"></rect></g></g></svg></g></svg></g><g></g></svg></g></svg></g></svg></g></svg></g><defs></defs></svg><rect width="342.8515585177538" height="342.8515585177538" fill="none" stroke="none" visibility="hidden"></rect></g></svg></g></svg>