<svg xmlns="http://www.w3.org/2000/svg" version="1.1" xmlns:xlink="http://www.w3.org/1999/xlink" xmlns:svgjs="http://svgjs.dev/svgjs" width="2000" height="742" viewBox="0 0 2000 742"><g transform="matrix(1,0,0,1,-1.2121212121212466,-0.3230230081165928)"><svg viewBox="0 0 396 147" data-background-color="#f9f9f9" preserveAspectRatio="xMidYMid meet" height="742" width="2000" xmlns="http://www.w3.org/2000/svg" xmlns:xlink="http://www.w3.org/1999/xlink"><g id="tight-bounds" transform="matrix(1,0,0,1,0.2400000000000091,0.06399512424951581)"><svg viewBox="0 0 395.52 146.87200975150097" height="146.87200975150097" width="395.52"><g><svg viewBox="0 0 395.52 146.87200975150097" height="146.87200975150097" width="395.52"><g><svg viewBox="0 0 395.52 146.87200975150097" height="146.87200975150097" width="395.52"><g id="textblocktransform"><svg viewBox="0 0 395.52 146.87200975150097" height="146.87200975150097" width="395.52" id="textblock"><g><svg viewBox="0 0 395.52 106.48118140233007" height="106.48118140233007" width="395.52"><rect width="395.52" height="106.48118140233007" x="0" y="0" opacity="1" fill="#030303" data-fill-palette-color="tertiary"></rect><g transform="matrix(1,0,0,1,23.461705032,23.461705031999998)"><svg width="348.596589936" viewBox="1.8 -37.5 222.39701361098 38" height="59.55777133833007" data-palette-color="#f9f9f9"><path d="M2.3-35L31.8-35 32.3-22.45 31.35-22.45Q29.15-29.1 27.45-31.53 25.75-33.95 22.55-33.95L22.55-33.95 21.95-33.95 21.95-1.05 26.2-1.05 26.2 0 7.95 0 7.95-1.05 12.2-1.05 12.2-33.95 11.55-33.95Q8.35-33.95 6.6-31.43 4.85-28.9 2.75-22.45L2.75-22.45 1.8-22.45 2.3-35ZM43.65-11.75L43.65-11.75 45.1-11.75 45.1-15.6Q45.1-20.35 44.57-21.98 44.05-23.6 42.55-23.6L42.55-23.6Q41.65-23.6 40.92-23.13 40.2-22.65 40.2-21.83 40.2-21 40.5-20.15L40.5-20.15 41.75-20.15Q42.15-19.1 42.15-17.63 42.15-16.15 40.9-15.08 39.65-14 37.75-14L37.75-14Q33.45-14 33.45-18.15L33.45-18.15Q33.45-24.3 43.9-24.3L43.9-24.3Q49.85-24.3 52.12-22.28 54.4-20.25 54.4-14.85L54.4-14.85 54.4-4.7Q54.4-2.1 55.85-2.1L55.85-2.1Q57.55-2.1 57.85-7.25L57.85-7.25 58.6-7.2Q58.4-2.8 56.95-1.15 55.5 0.5 52.2 0.5L52.2 0.5Q46.2 0.5 45.3-3.2L45.3-3.2Q44.65-1.3 43.35-0.4 42.05 0.5 39.55 0.5L39.55 0.5Q32.15 0.5 32.15-5.55L32.15-5.55Q32.15-9.1 34.97-10.43 37.8-11.75 43.65-11.75ZM41.65-5.6Q41.65-3 41.92-2.25 42.2-1.5 42.97-1.5 43.75-1.5 44.42-2.78 45.1-4.05 45.1-6.3L45.1-6.3 45.1-10.95 44.75-10.95Q41.65-10.95 41.65-6.4L41.65-6.4 41.65-5.6ZM60.84 0.5L60.24 0.5 60.24-8.45 60.84-8.45Q62.14-4.1 64.34-2.35 66.55-0.6 69.84-0.6L69.84-0.6Q74.94-0.6 74.94-3.85L74.94-3.85Q74.94-5.25 73.69-5.95L73.69-5.95Q71.75-7.05 68.69-7.65L68.69-7.65Q65.3-8.55 62.99-10.05L62.99-10.05Q60.24-11.85 60.24-15.75 60.24-19.65 62.64-21.98 65.05-24.3 69.05-24.3L69.05-24.3Q71.5-24.3 74.09-23.15L74.09-23.15Q75.05-22.75 75.55-22.75 76.05-22.75 76.39-23.1 76.75-23.45 77.25-24.4L77.25-24.4 77.8-24.4 77.8-16.75 77.19-16.75Q74.64-23.25 69.3-23.25L69.3-23.25Q66.94-23.25 65.8-22.43 64.64-21.6 64.64-20.35L64.64-20.35Q64.64-19.6 65-19.18 65.34-18.75 65.55-18.55 65.75-18.35 66.19-18.13 66.64-17.9 66.94-17.78 67.25-17.65 67.87-17.45 68.5-17.25 68.8-17.2L68.8-17.2Q72.19-16.35 73.69-15.73 75.19-15.1 76.55-14.2L76.55-14.2Q79.3-12.3 79.3-8.08 79.3-3.85 76.8-1.68 74.3 0.5 69.94 0.5L69.94 0.5Q66.84 0.5 63.95-0.95L63.95-0.95Q63.34-1.35 62.99-1.35L62.99-1.35Q61.89-1.35 60.84 0.5L60.84 0.5ZM111.04 0L97.14 0 97.14-0.9 99.44-0.9 93.79-12.5 92.84-12.25 92.84-0.9 95.14-0.9 95.14 0 80.79 0 80.79-0.9 83.54-0.9 83.54-36.6 80.59-36.6 80.59-37.5 92.84-37.5 92.84-13.25 93.64-13.55 104.89-22.9 100.19-22.9 100.19-23.8 110.04-23.8 110.04-22.9 106.54-22.9 100.59-17.85 109.24-0.9 111.04-0.9 111.04 0ZM132.69-9.25L138.69-35 152.04-35 152.04-34.05 149.29-34.05 149.29-0.95 152.04-0.95 152.04 0 136.79 0 136.79-0.95 139.54-0.95 139.54-32.2 139.34-32.2 131.84 0 125.59 0 116.79-32.35 116.59-32.35 116.59-0.95 119.34-0.95 119.34 0 112.54 0 112.54-0.95 115.29-0.95 115.29-34.05 112.54-34.05 112.54-35 126.04-35 132.69-9.25ZM165.79-11.75L165.79-11.75 167.24-11.75 167.24-15.6Q167.24-20.35 166.71-21.98 166.19-23.6 164.69-23.6L164.69-23.6Q163.79-23.6 163.06-23.13 162.34-22.65 162.34-21.83 162.34-21 162.64-20.15L162.64-20.15 163.89-20.15Q164.29-19.1 164.29-17.63 164.29-16.15 163.04-15.08 161.79-14 159.89-14L159.89-14Q155.59-14 155.59-18.15L155.59-18.15Q155.59-24.3 166.04-24.3L166.04-24.3Q171.99-24.3 174.26-22.28 176.54-20.25 176.54-14.85L176.54-14.85 176.54-4.7Q176.54-2.1 177.99-2.1L177.99-2.1Q179.69-2.1 179.99-7.25L179.99-7.25 180.74-7.2Q180.54-2.8 179.09-1.15 177.64 0.5 174.34 0.5L174.34 0.5Q168.34 0.5 167.44-3.2L167.44-3.2Q166.79-1.3 165.49-0.4 164.19 0.5 161.69 0.5L161.69 0.5Q154.29 0.5 154.29-5.55L154.29-5.55Q154.29-9.1 157.11-10.43 159.94-11.75 165.79-11.75ZM163.79-5.6Q163.79-3 164.06-2.25 164.34-1.5 165.11-1.5 165.89-1.5 166.56-2.78 167.24-4.05 167.24-6.3L167.24-6.3 167.24-10.95 166.89-10.95Q163.79-10.95 163.79-6.4L163.79-6.4 163.79-5.6ZM182.99-7.15L182.99-7.15 182.99-22.9 180.24-22.9 180.24-23.8 182.99-23.8 182.99-30.25 192.29-32.55 192.29-23.8 198.79-23.8 198.79-22.9 192.29-22.9 192.29-6.05Q192.29-3.7 192.76-2.6 193.24-1.5 194.74-1.5 196.24-1.5 197.36-3 198.49-4.5 198.84-7.1L198.84-7.1 199.69-7Q199.29-3.55 197.49-1.53 195.69 0.5 191.54 0.5 187.39 0.5 185.19-1.15 182.99-2.8 182.99-7.15ZM213.33 0.5Q206.88 0.5 203.66-2.83 200.43-6.15 200.43-12.08 200.43-18 204.06-21.15 207.68-24.3 213.28-24.3L213.28-24.3Q224.63-24.3 224.18-12.9L224.18-12.9 210.08-12.9 210.08-10.95Q210.08-6.05 211.33-3.55 212.58-1.05 215.68-1.05L215.68-1.05Q221.48-1.05 223.28-7.25L223.28-7.25 224.18-7.1Q223.23-3.5 220.76-1.5 218.28 0.5 213.33 0.5L213.33 0.5ZM210.13-16.35L210.13-13.9 215.28-13.9 215.28-16.35Q215.28-20.4 214.81-21.88 214.33-23.35 212.91-23.35 211.48-23.35 210.81-21.78 210.13-20.2 210.13-16.35L210.13-16.35Z" opacity="1" transform="matrix(1,0,0,1,0,0)" fill="#f9f9f9" class="wordmark-text-0" data-fill-palette-color="quaternary" id="text-0"></path></svg></g></svg></g><g transform="matrix(1,0,0,1,0,118.21203391833006)"><svg viewBox="0 0 395.52 28.65997583317092" height="28.65997583317092" width="395.52"><g transform="matrix(1,0,0,1,0,0)"><svg width="395.52" viewBox="4.69 -36.74 626.3399999999999 45.38" height="28.65997583317092" data-palette-color="#030303"><path d="M8.69 0L4.69 0 4.69-33.84 24-33.84 24-30.44 8.69-30.44 8.69-18.7 21.68-18.7 21.68-15.28 8.69-15.28 8.69 0ZM39.23 0.61L39.23 0.61Q36.21 0.61 33.58-0.93 30.96-2.47 29.36-5.38 27.76-8.3 27.76-12.45L27.76-12.45Q27.76-16.63 29.36-19.57 30.96-22.51 33.58-24.06 36.21-25.61 39.23-25.61L39.23-25.61Q42.31-25.61 44.95-24.06 47.58-22.51 49.18-19.57 50.78-16.63 50.78-12.45L50.78-12.45Q50.78-8.3 49.18-5.38 47.58-2.47 44.95-0.93 42.31 0.61 39.23 0.61ZM39.23-2.66L39.23-2.66Q42.58-2.66 44.65-5.36 46.73-8.06 46.73-12.45L46.73-12.45Q46.73-16.87 44.65-19.59 42.58-22.31 39.23-22.31L39.23-22.31Q37.06-22.31 35.38-21.07 33.69-19.82 32.75-17.61 31.81-15.41 31.81-12.45L31.81-12.45Q31.81-8.06 33.89-5.36 35.96-2.66 39.23-2.66ZM67.29 0.61L67.29 0.61Q63.99 0.61 61.35-0.93 58.72-2.47 57.18-5.38 55.64-8.3 55.64-12.45L55.64-12.45Q55.64-16.63 57.3-19.57 58.96-22.51 61.68-24.06 64.4-25.61 67.58-25.61L67.58-25.61Q70.07-25.61 71.83-24.76 73.58-23.9 74.9-22.66L74.9-22.66 72.9-20.19Q71.85-21.17 70.57-21.74 69.29-22.31 67.75-22.31L67.75-22.31Q65.43-22.31 63.61-21.07 61.79-19.82 60.74-17.61 59.69-15.41 59.69-12.45L59.69-12.45Q59.69-8.06 61.89-5.36 64.09-2.66 67.65-2.66L67.65-2.66Q69.43-2.66 70.95-3.34 72.46-4.03 73.61-5.08L73.61-5.08 75.37-2.56Q71.92 0.61 67.29 0.61ZM88.23 0.61L88.23 0.61Q84.3 0.61 82.46-1.86 80.62-4.32 80.62-9.11L80.62-9.11 80.62-24.98 84.52-24.98 84.52-9.62Q84.52-6.08 85.68-4.46 86.84-2.83 89.43-2.83L89.43-2.83Q91.38-2.83 92.93-3.85 94.48-4.86 96.34-7.15L96.34-7.15 96.34-24.98 100.24-24.98 100.24 0 97 0 96.66-3.96 96.48-3.96Q94.75-1.9 92.77-0.65 90.8 0.61 88.23 0.61ZM115.36 0.61L115.36 0.61Q112.57 0.61 110.18-0.33 107.79-1.27 106.08-2.93L106.08-2.93 107.93-5.25Q109.52-3.93 111.32-3.2 113.11-2.47 115.5-2.47L115.5-2.47Q118.02-2.47 119.29-3.67 120.56-4.88 120.56-6.54L120.56-6.54Q120.56-7.86 119.73-8.73 118.9-9.59 117.59-10.21 116.28-10.82 114.84-11.33L114.84-11.33Q112.99-12.01 111.3-12.92 109.62-13.82 108.54-15.19 107.47-16.55 107.47-18.6L107.47-18.6Q107.47-21.53 109.69-23.57 111.91-25.61 115.97-25.61L115.97-25.61Q118.29-25.61 120.25-24.82 122.22-24.02 123.66-22.83L123.66-22.83 121.85-20.51Q120.53-21.46 119.13-21.98 117.72-22.51 116.02-22.51L116.02-22.51Q113.55-22.51 112.41-21.37 111.28-20.24 111.28-18.8L111.28-18.8Q111.28-17.02 112.79-16.11 114.31-15.21 116.58-14.36L116.58-14.36Q118.55-13.67 120.34-12.78 122.12-11.89 123.24-10.47 124.37-9.06 124.37-6.74L124.37-6.74Q124.37-3.71 122.05-1.55 119.73 0.61 115.36 0.61ZM129.52 8.64L129.52 8.64 128.49 6.27Q130.62 5.3 131.84 3.65 133.06 2 133.01-0.1L133.01-0.1 132.54-3.81 134.62-0.81Q134.2-0.27 133.64-0.11 133.08 0.05 132.5 0.05L132.5 0.05Q131.35 0.05 130.46-0.66 129.57-1.37 129.57-2.76L129.57-2.76Q129.57-4.08 130.46-4.85 131.35-5.62 132.54-5.62L132.54-5.62Q134.18-5.62 135.1-4.32 136.01-3.03 136.01-0.81L136.01-0.81Q136.01 2.44 134.25 4.88 132.5 7.32 129.52 8.64ZM163.48 0L159.47 0 159.47-33.84 168.95-33.84Q172.73-33.84 175.57-32.9 178.42-31.96 179.99-29.8 181.57-27.64 181.57-23.95L181.57-23.95Q181.57-18.65 178.14-16.13 174.71-13.6 169.14-13.6L169.14-13.6 163.48-13.6 163.48 0ZM163.48-30.54L163.48-16.85 168.58-16.85Q173.14-16.85 175.35-18.54 177.56-20.24 177.56-23.95L177.56-23.95Q177.56-27.71 175.27-29.13 172.97-30.54 168.38-30.54L168.38-30.54 163.48-30.54ZM192.07 0L188.11 0 188.11-24.98 191.41-24.98 191.77-20.46 191.87-20.46Q193.19-22.8 195.02-24.21 196.85-25.61 198.97-25.61L198.97-25.61Q200.59-25.61 201.61-25.1L201.61-25.1 200.73-21.73Q200.2-21.9 199.72-21.97 199.24-22.05 198.46-22.05L198.46-22.05Q196.88-22.05 195.12-20.74 193.36-19.43 192.07-16.16L192.07-16.16 192.07 0ZM209.74 0L205.79 0 205.79-24.98 209.74-24.98 209.74 0ZM207.84-30.25L207.84-30.25Q206.64-30.25 205.91-30.99 205.18-31.74 205.18-32.98L205.18-32.98Q205.18-34.13 205.91-34.86 206.64-35.6 207.84-35.6L207.84-35.6Q209.03-35.6 209.77-34.86 210.5-34.13 210.5-32.98L210.5-32.98Q210.5-31.74 209.77-30.99 209.03-30.25 207.84-30.25ZM227.98 0.61L227.98 0.61Q224.95 0.61 222.33-0.93 219.7-2.47 218.1-5.38 216.5-8.3 216.5-12.45L216.5-12.45Q216.5-16.63 218.1-19.57 219.7-22.51 222.33-24.06 224.95-25.61 227.98-25.61L227.98-25.61Q231.05-25.61 233.69-24.06 236.33-22.51 237.93-19.57 239.53-16.63 239.53-12.45L239.53-12.45Q239.53-8.3 237.93-5.38 236.33-2.47 233.69-0.93 231.05 0.61 227.98 0.61ZM227.98-2.66L227.98-2.66Q231.32-2.66 233.4-5.36 235.47-8.06 235.47-12.45L235.47-12.45Q235.47-16.87 233.4-19.59 231.32-22.31 227.98-22.31L227.98-22.31Q225.81-22.31 224.12-21.07 222.44-19.82 221.5-17.61 220.56-15.41 220.56-12.45L220.56-12.45Q220.56-8.06 222.63-5.36 224.71-2.66 227.98-2.66ZM250.2 0L246.24 0 246.24-24.98 249.54-24.98 249.9-20.46 250-20.46Q251.32-22.8 253.15-24.21 254.98-25.61 257.1-25.61L257.1-25.61Q258.72-25.61 259.74-25.1L259.74-25.1 258.86-21.73Q258.33-21.9 257.85-21.97 257.37-22.05 256.59-22.05L256.59-22.05Q255-22.05 253.25-20.74 251.49-19.43 250.2-16.16L250.2-16.16 250.2 0ZM267.87 0L263.92 0 263.92-24.98 267.87-24.98 267.87 0ZM265.97-30.25L265.97-30.25Q264.77-30.25 264.04-30.99 263.31-31.74 263.31-32.98L263.31-32.98Q263.31-34.13 264.04-34.86 264.77-35.6 265.97-35.6L265.97-35.6Q267.16-35.6 267.9-34.86 268.63-34.13 268.63-32.98L268.63-32.98Q268.63-31.74 267.9-30.99 267.16-30.25 265.97-30.25ZM284.2 0.61L284.2 0.61Q280.27 0.61 278.74-1.66 277.2-3.93 277.2-7.62L277.2-7.62 277.2-21.73 273.49-21.73 273.49-24.78 277.42-24.98 277.88-33.08 281.18-33.08 281.18-24.98 288.04-24.98 288.04-21.73 281.18-21.73 281.18-7.52Q281.18-5.2 282.03-3.91 282.89-2.61 285.08-2.61L285.08-2.61Q285.74-2.61 286.47-2.75 287.21-2.88 287.96-3.22L287.96-3.22 288.84-0.44Q287.84 0 286.65 0.31 285.45 0.61 284.2 0.61ZM297.66 0L293.7 0 293.7-24.98 297.66-24.98 297.66 0ZM295.75-30.25L295.75-30.25Q294.56-30.25 293.82-30.99 293.09-31.74 293.09-32.98L293.09-32.98Q293.09-34.13 293.82-34.86 294.56-35.6 295.75-35.6L295.75-35.6Q296.95-35.6 297.68-34.86 298.41-34.13 298.41-32.98L298.41-32.98Q298.41-31.74 297.68-30.99 296.95-30.25 295.75-30.25ZM322.39 0L303.54 0 303.54-2.1 316.99-21.73 305.03-21.73 305.03-24.98 322-24.98 322-22.88 308.59-3.22 322.39-3.22 322.39 0ZM338.04 0.61L338.04 0.61Q334.74 0.61 332.04-0.95 329.35-2.51 327.75-5.44 326.15-8.37 326.15-12.45L326.15-12.45Q326.15-16.53 327.75-19.48 329.35-22.44 331.91-24.02 334.47-25.61 337.33-25.61L337.33-25.61Q342.04-25.61 344.63-22.46 347.22-19.31 347.22-13.89L347.22-13.89Q347.22-12.52 347.07-11.57L347.07-11.57 330.05-11.57Q330.25-7.5 332.54-5 334.84-2.51 338.5-2.51L338.5-2.51Q340.38-2.51 341.94-3.02 343.51-3.52 344.85-4.42L344.85-4.42 346.24-1.95Q344.6-0.83 342.63-0.11 340.65 0.61 338.04 0.61ZM330-14.43L330-14.43 343.73-14.43Q343.73-18.36 342.07-20.41 340.41-22.46 337.38-22.46L337.38-22.46Q334.67-22.46 332.53-20.36 330.4-18.26 330-14.43ZM375.32 0.61L375.32 0.61Q372.19 0.61 370.09-1.21 367.99-3.03 367.99-6.42L367.99-6.42Q367.99-10.52 371.72-12.72 375.44-14.92 383.47-15.82L383.47-15.82Q383.47-17.48 383.02-18.97 382.57-20.46 381.43-21.41 380.3-22.36 378.2-22.36L378.2-22.36Q375.98-22.36 374.04-21.51 372.09-20.65 370.63-19.73L370.63-19.73 369.09-22.36Q370.75-23.51 373.28-24.56 375.81-25.61 378.83-25.61L378.83-25.61Q383.4-25.61 385.41-22.8 387.43-20 387.43-15.41L387.43-15.41 387.43 0 384.13 0 383.81-3.03 383.67-3.03Q381.86-1.54 379.75-0.46 377.64 0.61 375.32 0.61ZM376.39-2.56L376.39-2.56Q378.27-2.56 379.92-3.44 381.57-4.32 383.47-5.96L383.47-5.96 383.47-13.18Q379.15-12.65 376.61-11.77 374.07-10.89 372.97-9.64 371.88-8.4 371.88-6.74L371.88-6.74Q371.88-4.52 373.19-3.54 374.51-2.56 376.39-2.56ZM399.37 0L395.41 0 395.41-24.98 398.71-24.98 399.07-21.39 399.17-21.39Q400.98-23.17 403-24.39 405.03-25.61 407.62-25.61L407.62-25.61Q411.52-25.61 413.35-23.13 415.19-20.65 415.19-15.87L415.19-15.87 415.19 0 411.28 0 411.28-15.36Q411.28-18.92 410.13-20.56 408.98-22.19 406.37-22.19L406.37-22.19Q404.44-22.19 402.88-21.17 401.32-20.14 399.37-18.19L399.37-18.19 399.37 0ZM431.93 0.61L431.93 0.61Q427.27 0.61 424.45-2.8 421.63-6.2 421.63-12.45L421.63-12.45Q421.63-16.5 423.16-19.46 424.68-22.41 427.16-24.01 429.64-25.61 432.5-25.61L432.5-25.61Q434.67-25.61 436.29-24.84 437.92-24.07 439.55-22.71L439.55-22.71 439.4-27 439.4-36.74 443.38-36.74 443.38 0 440.09 0 439.77-2.98 439.62-2.98Q438.13-1.51 436.18-0.45 434.23 0.61 431.93 0.61ZM432.81-2.71L432.81-2.71Q434.59-2.71 436.18-3.58 437.77-4.44 439.4-6.23L439.4-6.23 439.4-19.58Q437.74-21.04 436.23-21.68 434.72-22.31 433.13-22.31L433.13-22.31Q431.05-22.31 429.38-21.07 427.71-19.82 426.71-17.6 425.71-15.38 425.71-12.45L425.71-12.45Q425.71-7.89 427.56-5.3 429.42-2.71 432.81-2.71ZM488.33 0L468.46 0 468.46-33.84 487.82-33.84 487.82-30.44 472.46-30.44 472.46-19.53 485.4-19.53 485.4-16.06 472.46-16.06 472.46-3.39 488.33-3.39 488.33 0ZM495.65 0L491.53 0 499.78-13.04 492.14-24.98 496.44-24.98 499.88-19.36Q500.46-18.36 501.1-17.3 501.73-16.24 502.34-15.23L502.34-15.23 502.56-15.23Q503.13-16.24 503.71-17.3 504.3-18.36 504.88-19.36L504.88-19.36 508.03-24.98 512.21-24.98 504.57-12.67 512.82 0 508.5 0 504.71-5.96Q504.08-7.1 503.38-8.24 502.69-9.38 501.93-10.45L501.93-10.45 501.73-10.45Q501.07-9.38 500.44-8.25 499.8-7.13 499.15-5.96L499.15-5.96 495.65 0ZM527.83 0.61L527.83 0.61Q524.54 0.61 521.84-0.95 519.14-2.51 517.54-5.44 515.94-8.37 515.94-12.45L515.94-12.45Q515.94-16.53 517.54-19.48 519.14-22.44 521.7-24.02 524.27-25.61 527.12-25.61L527.12-25.61Q531.84-25.61 534.42-22.46 537.01-19.31 537.01-13.89L537.01-13.89Q537.01-12.52 536.87-11.57L536.87-11.57 519.85-11.57Q520.04-7.5 522.34-5 524.63-2.51 528.3-2.51L528.3-2.51Q530.18-2.51 531.74-3.02 533.3-3.52 534.64-4.42L534.64-4.42 536.04-1.95Q534.4-0.83 532.42-0.11 530.44 0.61 527.83 0.61ZM519.8-14.43L519.8-14.43 533.52-14.43Q533.52-18.36 531.86-20.41 530.2-22.46 527.17-22.46L527.17-22.46Q524.46-22.46 522.33-20.36 520.19-18.26 519.8-14.43ZM553.03 0.61L553.03 0.61Q549.73 0.61 547.09-0.93 544.46-2.47 542.92-5.38 541.38-8.3 541.38-12.45L541.38-12.45Q541.38-16.63 543.04-19.57 544.7-22.51 547.42-24.06 550.15-25.61 553.32-25.61L553.32-25.61Q555.81-25.61 557.57-24.76 559.33-23.9 560.64-22.66L560.64-22.66 558.64-20.19Q557.59-21.17 556.31-21.74 555.03-22.31 553.49-22.31L553.49-22.31Q551.17-22.31 549.35-21.07 547.53-19.82 546.48-17.61 545.43-15.41 545.43-12.45L545.43-12.45Q545.43-8.06 547.63-5.36 549.83-2.66 553.39-2.66L553.39-2.66Q555.18-2.66 556.69-3.34 558.2-4.03 559.35-5.08L559.35-5.08 561.11-2.56Q557.67 0.61 553.03 0.61ZM573.97 0.61L573.97 0.61Q570.04 0.61 568.2-1.86 566.36-4.32 566.36-9.11L566.36-9.11 566.36-24.98 570.26-24.98 570.26-9.62Q570.26-6.08 571.42-4.46 572.58-2.83 575.17-2.83L575.17-2.83Q577.12-2.83 578.67-3.85 580.22-4.86 582.08-7.15L582.08-7.15 582.08-24.98 585.99-24.98 585.99 0 582.74 0 582.4-3.96 582.23-3.96Q580.49-1.9 578.52-0.65 576.54 0.61 573.97 0.61ZM602.32 0.61L602.32 0.61Q598.39 0.61 596.85-1.66 595.31-3.93 595.31-7.62L595.31-7.62 595.31-21.73 591.6-21.73 591.6-24.78 595.53-24.98 596-33.08 599.29-33.08 599.29-24.98 606.15-24.98 606.15-21.73 599.29-21.73 599.29-7.52Q599.29-5.2 600.15-3.91 601-2.61 603.2-2.61L603.2-2.61Q603.86-2.61 604.59-2.75 605.32-2.88 606.08-3.22L606.08-3.22 606.96-0.44Q605.96 0 604.76 0.31 603.56 0.61 602.32 0.61ZM621.85 0.61L621.85 0.61Q618.55 0.61 615.86-0.95 613.16-2.51 611.56-5.44 609.96-8.37 609.96-12.45L609.96-12.45Q609.96-16.53 611.56-19.48 613.16-22.44 615.72-24.02 618.29-25.61 621.14-25.61L621.14-25.61Q625.85-25.61 628.44-22.46 631.03-19.31 631.03-13.89L631.03-13.89Q631.03-12.52 630.88-11.57L630.88-11.57 613.87-11.57Q614.06-7.5 616.36-5 618.65-2.51 622.31-2.51L622.31-2.51Q624.19-2.51 625.76-3.02 627.32-3.52 628.66-4.42L628.66-4.42 630.05-1.95Q628.42-0.83 626.44-0.11 624.46 0.61 621.85 0.61ZM613.82-14.43L613.82-14.43 627.54-14.43Q627.54-18.36 625.88-20.41 624.22-22.46 621.19-22.46L621.19-22.46Q618.48-22.46 616.35-20.36 614.21-18.26 613.82-14.43Z" opacity="1" transform="matrix(1,0,0,1,0,0)" fill="#030303" class="slogan-text-1" data-fill-palette-color="secondary" id="text-1"></path></svg></g></svg></g></svg></g></svg></g></svg></g><defs></defs></svg><rect width="395.52" height="146.87200975150097" fill="none" stroke="none" visibility="hidden"></rect></g></svg></g></svg>